<mxfile host="app.diagrams.net" agent="Mozilla/5.0 (Windows NT 10.0; Win64; x64) AppleWebKit/537.36 (KHTML, like Gecko) Chrome/130.0.0.0 Safari/537.36" version="24.8.0">
  <diagram name="第 1 页" id="boaGlC_A0SEjg5snhlWo">
    <mxGraphModel dx="2074" dy="2267" grid="1" gridSize="10" guides="1" tooltips="1" connect="1" arrows="1" fold="1" page="1" pageScale="1" pageWidth="827" pageHeight="1169" math="0" shadow="0">
      <root>
        <mxCell id="0" />
        <mxCell id="1" parent="0" />
        <mxCell id="HHnwj9ZDeLS21Np8BCJO-12" style="edgeStyle=orthogonalEdgeStyle;rounded=0;orthogonalLoop=1;jettySize=auto;html=1;exitX=0.5;exitY=1;exitDx=0;exitDy=0;entryX=0;entryY=0.5;entryDx=0;entryDy=0;curved=1;" edge="1" parent="1" source="HHnwj9ZDeLS21Np8BCJO-9" target="HHnwj9ZDeLS21Np8BCJO-11">
          <mxGeometry relative="1" as="geometry" />
        </mxCell>
        <mxCell id="HHnwj9ZDeLS21Np8BCJO-9" value="&lt;font style=&quot;font-size: 18px;&quot; face=&quot;Times New Roman&quot;&gt;derphttp.Connect&lt;/font&gt;" style="ellipse;whiteSpace=wrap;html=1;" vertex="1" parent="1">
          <mxGeometry x="460" y="-90" width="160" height="50" as="geometry" />
        </mxCell>
        <mxCell id="HHnwj9ZDeLS21Np8BCJO-27" style="edgeStyle=orthogonalEdgeStyle;rounded=0;orthogonalLoop=1;jettySize=auto;html=1;exitX=1;exitY=0.5;exitDx=0;exitDy=0;entryX=0;entryY=0.5;entryDx=0;entryDy=0;dashed=1;" edge="1" parent="1" source="HHnwj9ZDeLS21Np8BCJO-11" target="HHnwj9ZDeLS21Np8BCJO-18">
          <mxGeometry relative="1" as="geometry" />
        </mxCell>
        <mxCell id="HHnwj9ZDeLS21Np8BCJO-11" value="&lt;font style=&quot;font-size: 18px;&quot; face=&quot;Times New Roman&quot;&gt;derphttp.connect&lt;/font&gt;" style="ellipse;whiteSpace=wrap;html=1;" vertex="1" parent="1">
          <mxGeometry x="610" y="-30" width="160" height="50" as="geometry" />
        </mxCell>
        <mxCell id="HHnwj9ZDeLS21Np8BCJO-14" value="derphttp.Client.Connect" style="text;html=1;align=center;verticalAlign=middle;whiteSpace=wrap;rounded=0;" vertex="1" parent="1">
          <mxGeometry x="400" y="-40" width="140" height="30" as="geometry" />
        </mxCell>
        <mxCell id="HHnwj9ZDeLS21Np8BCJO-25" style="edgeStyle=orthogonalEdgeStyle;rounded=0;orthogonalLoop=1;jettySize=auto;html=1;exitX=0.5;exitY=1;exitDx=0;exitDy=0;entryX=0.5;entryY=0;entryDx=0;entryDy=0;" edge="1" parent="1" source="HHnwj9ZDeLS21Np8BCJO-18" target="HHnwj9ZDeLS21Np8BCJO-19">
          <mxGeometry relative="1" as="geometry" />
        </mxCell>
        <mxCell id="HHnwj9ZDeLS21Np8BCJO-29" style="edgeStyle=orthogonalEdgeStyle;rounded=0;orthogonalLoop=1;jettySize=auto;html=1;exitX=1;exitY=0.5;exitDx=0;exitDy=0;entryX=0;entryY=0.5;entryDx=0;entryDy=0;dashed=1;" edge="1" parent="1" source="HHnwj9ZDeLS21Np8BCJO-18" target="HHnwj9ZDeLS21Np8BCJO-28">
          <mxGeometry relative="1" as="geometry" />
        </mxCell>
        <mxCell id="HHnwj9ZDeLS21Np8BCJO-18" value="&lt;font style=&quot;font-size: 18px;&quot; face=&quot;Times New Roman&quot;&gt;derphttp.dialRegion&lt;/font&gt;" style="ellipse;whiteSpace=wrap;html=1;" vertex="1" parent="1">
          <mxGeometry x="830" y="-30" width="160" height="50" as="geometry" />
        </mxCell>
        <mxCell id="HHnwj9ZDeLS21Np8BCJO-26" style="edgeStyle=orthogonalEdgeStyle;rounded=0;orthogonalLoop=1;jettySize=auto;html=1;exitX=0.5;exitY=1;exitDx=0;exitDy=0;entryX=0.5;entryY=0;entryDx=0;entryDy=0;" edge="1" parent="1" source="HHnwj9ZDeLS21Np8BCJO-19" target="HHnwj9ZDeLS21Np8BCJO-20">
          <mxGeometry relative="1" as="geometry" />
        </mxCell>
        <mxCell id="HHnwj9ZDeLS21Np8BCJO-19" value="&lt;font style=&quot;font-size: 18px;&quot; face=&quot;Times New Roman&quot;&gt;Get /derp&lt;/font&gt;" style="ellipse;whiteSpace=wrap;html=1;" vertex="1" parent="1">
          <mxGeometry x="827" y="50" width="160" height="50" as="geometry" />
        </mxCell>
        <mxCell id="HHnwj9ZDeLS21Np8BCJO-24" style="edgeStyle=orthogonalEdgeStyle;rounded=0;orthogonalLoop=1;jettySize=auto;html=1;exitX=1;exitY=0.5;exitDx=0;exitDy=0;entryX=0;entryY=0.5;entryDx=0;entryDy=0;dashed=1;" edge="1" parent="1" source="HHnwj9ZDeLS21Np8BCJO-20" target="HHnwj9ZDeLS21Np8BCJO-21">
          <mxGeometry relative="1" as="geometry" />
        </mxCell>
        <mxCell id="HHnwj9ZDeLS21Np8BCJO-20" value="&lt;span style=&quot;font-family: &amp;quot;Times New Roman&amp;quot;; font-size: 18px;&quot;&gt;derp.NewClient&lt;/span&gt;" style="ellipse;whiteSpace=wrap;html=1;" vertex="1" parent="1">
          <mxGeometry x="827" y="130" width="160" height="50" as="geometry" />
        </mxCell>
        <mxCell id="HHnwj9ZDeLS21Np8BCJO-21" value="&lt;span style=&quot;font-family: &amp;quot;Times New Roman&amp;quot;; font-size: 18px;&quot;&gt;SendClientKey&lt;/span&gt;" style="ellipse;whiteSpace=wrap;html=1;" vertex="1" parent="1">
          <mxGeometry x="1050" y="130" width="160" height="50" as="geometry" />
        </mxCell>
        <mxCell id="HHnwj9ZDeLS21Np8BCJO-23" value="&lt;font style=&quot;font-size: 18px;&quot; face=&quot;Times New Roman&quot;&gt;Send Public Key, and other client info in ciphertext, with type(0x02)&lt;/font&gt;" style="text;html=1;align=center;verticalAlign=middle;whiteSpace=wrap;rounded=0;" vertex="1" parent="1">
          <mxGeometry x="1210" y="140" width="520" height="30" as="geometry" />
        </mxCell>
        <mxCell id="HHnwj9ZDeLS21Np8BCJO-28" value="&lt;font style=&quot;font-size: 18px;&quot; face=&quot;Times New Roman&quot;&gt;derphttp.dialNode&lt;/font&gt;" style="ellipse;whiteSpace=wrap;html=1;" vertex="1" parent="1">
          <mxGeometry x="1040" y="-30" width="160" height="50" as="geometry" />
        </mxCell>
        <mxCell id="HHnwj9ZDeLS21Np8BCJO-33" style="edgeStyle=orthogonalEdgeStyle;rounded=0;orthogonalLoop=1;jettySize=auto;html=1;exitX=0.5;exitY=1;exitDx=0;exitDy=0;entryX=0;entryY=0.5;entryDx=0;entryDy=0;curved=1;" edge="1" parent="1" source="HHnwj9ZDeLS21Np8BCJO-30" target="HHnwj9ZDeLS21Np8BCJO-32">
          <mxGeometry relative="1" as="geometry" />
        </mxCell>
        <mxCell id="HHnwj9ZDeLS21Np8BCJO-30" value="&lt;font style=&quot;font-size: 18px;&quot; face=&quot;Times New Roman&quot;&gt;derphttp.Send&lt;/font&gt;" style="ellipse;whiteSpace=wrap;html=1;" vertex="1" parent="1">
          <mxGeometry x="460" y="250" width="160" height="50" as="geometry" />
        </mxCell>
        <mxCell id="HHnwj9ZDeLS21Np8BCJO-36" style="edgeStyle=orthogonalEdgeStyle;rounded=0;orthogonalLoop=1;jettySize=auto;html=1;exitX=0.5;exitY=1;exitDx=0;exitDy=0;entryX=0.5;entryY=0;entryDx=0;entryDy=0;" edge="1" parent="1" source="HHnwj9ZDeLS21Np8BCJO-32" target="HHnwj9ZDeLS21Np8BCJO-35">
          <mxGeometry relative="1" as="geometry" />
        </mxCell>
        <mxCell id="HHnwj9ZDeLS21Np8BCJO-32" value="&lt;font style=&quot;font-size: 18px;&quot; face=&quot;Times New Roman&quot;&gt;derphttp.connect&lt;/font&gt;" style="ellipse;whiteSpace=wrap;html=1;" vertex="1" parent="1">
          <mxGeometry x="610" y="310" width="160" height="50" as="geometry" />
        </mxCell>
        <mxCell id="HHnwj9ZDeLS21Np8BCJO-34" value="derphttp.Client.Send" style="text;html=1;align=center;verticalAlign=middle;whiteSpace=wrap;rounded=0;" vertex="1" parent="1">
          <mxGeometry x="410" y="300" width="130" height="30" as="geometry" />
        </mxCell>
        <mxCell id="HHnwj9ZDeLS21Np8BCJO-35" value="&lt;font style=&quot;font-size: 18px;&quot; face=&quot;Times New Roman&quot;&gt;derp.Send&lt;/font&gt;" style="ellipse;whiteSpace=wrap;html=1;" vertex="1" parent="1">
          <mxGeometry x="610" y="400" width="160" height="50" as="geometry" />
        </mxCell>
        <mxCell id="HHnwj9ZDeLS21Np8BCJO-38" value="&lt;font style=&quot;font-size: 18px;&quot; face=&quot;Times New Roman&quot;&gt;Send Dest Public Key, and data, with type(0x04)&lt;/font&gt;" style="text;html=1;align=center;verticalAlign=middle;whiteSpace=wrap;rounded=0;" vertex="1" parent="1">
          <mxGeometry x="770" y="410" width="400" height="30" as="geometry" />
        </mxCell>
        <mxCell id="HHnwj9ZDeLS21Np8BCJO-45" style="edgeStyle=orthogonalEdgeStyle;rounded=0;orthogonalLoop=1;jettySize=auto;html=1;exitX=0.5;exitY=1;exitDx=0;exitDy=0;entryX=0;entryY=0.5;entryDx=0;entryDy=0;curved=1;" edge="1" parent="1" source="HHnwj9ZDeLS21Np8BCJO-39" target="HHnwj9ZDeLS21Np8BCJO-43">
          <mxGeometry relative="1" as="geometry" />
        </mxCell>
        <mxCell id="HHnwj9ZDeLS21Np8BCJO-39" value="&lt;font style=&quot;font-size: 18px;&quot; face=&quot;Times New Roman&quot;&gt;derphttp.ForwardPacket&lt;/font&gt;" style="ellipse;whiteSpace=wrap;html=1;" vertex="1" parent="1">
          <mxGeometry x="460" y="585" width="160" height="50" as="geometry" />
        </mxCell>
        <mxCell id="HHnwj9ZDeLS21Np8BCJO-42" value="derphttp.Client.ForwardPacket" style="text;html=1;align=center;verticalAlign=middle;whiteSpace=wrap;rounded=0;" vertex="1" parent="1">
          <mxGeometry x="360" y="635" width="180" height="30" as="geometry" />
        </mxCell>
        <mxCell id="HHnwj9ZDeLS21Np8BCJO-47" style="edgeStyle=orthogonalEdgeStyle;rounded=0;orthogonalLoop=1;jettySize=auto;html=1;exitX=0.5;exitY=1;exitDx=0;exitDy=0;" edge="1" parent="1" source="HHnwj9ZDeLS21Np8BCJO-43" target="HHnwj9ZDeLS21Np8BCJO-46">
          <mxGeometry relative="1" as="geometry" />
        </mxCell>
        <mxCell id="HHnwj9ZDeLS21Np8BCJO-43" value="&lt;font style=&quot;font-size: 18px;&quot; face=&quot;Times New Roman&quot;&gt;derphttp.connect&lt;/font&gt;" style="ellipse;whiteSpace=wrap;html=1;" vertex="1" parent="1">
          <mxGeometry x="610" y="635" width="160" height="50" as="geometry" />
        </mxCell>
        <mxCell id="HHnwj9ZDeLS21Np8BCJO-46" value="&lt;font style=&quot;font-size: 18px;&quot; face=&quot;Times New Roman&quot;&gt;derp.FrowardPacket&lt;/font&gt;" style="ellipse;whiteSpace=wrap;html=1;" vertex="1" parent="1">
          <mxGeometry x="610" y="720" width="160" height="50" as="geometry" />
        </mxCell>
        <mxCell id="HHnwj9ZDeLS21Np8BCJO-48" value="&lt;font style=&quot;font-size: 18px;&quot; face=&quot;Times New Roman&quot;&gt;Send Src, Dest Public Key, and Forward data, with type(0x0a)&lt;/font&gt;" style="text;html=1;align=center;verticalAlign=middle;whiteSpace=wrap;rounded=0;" vertex="1" parent="1">
          <mxGeometry x="770" y="730" width="480" height="30" as="geometry" />
        </mxCell>
        <mxCell id="HHnwj9ZDeLS21Np8BCJO-53" style="edgeStyle=orthogonalEdgeStyle;rounded=0;orthogonalLoop=1;jettySize=auto;html=1;exitX=0.5;exitY=1;exitDx=0;exitDy=0;entryX=0;entryY=0.5;entryDx=0;entryDy=0;curved=1;" edge="1" parent="1" source="HHnwj9ZDeLS21Np8BCJO-49" target="HHnwj9ZDeLS21Np8BCJO-52">
          <mxGeometry relative="1" as="geometry" />
        </mxCell>
        <mxCell id="HHnwj9ZDeLS21Np8BCJO-49" value="&lt;font style=&quot;font-size: 18px;&quot; face=&quot;Times New Roman&quot;&gt;derphttp.Recv/RecvDetail&lt;/font&gt;" style="ellipse;whiteSpace=wrap;html=1;" vertex="1" parent="1">
          <mxGeometry x="460" y="840" width="160" height="50" as="geometry" />
        </mxCell>
        <mxCell id="HHnwj9ZDeLS21Np8BCJO-56" style="edgeStyle=orthogonalEdgeStyle;rounded=0;orthogonalLoop=1;jettySize=auto;html=1;exitX=0.5;exitY=1;exitDx=0;exitDy=0;entryX=0.5;entryY=0;entryDx=0;entryDy=0;" edge="1" parent="1" source="HHnwj9ZDeLS21Np8BCJO-52" target="HHnwj9ZDeLS21Np8BCJO-55">
          <mxGeometry relative="1" as="geometry" />
        </mxCell>
        <mxCell id="HHnwj9ZDeLS21Np8BCJO-52" value="&lt;font style=&quot;font-size: 18px;&quot; face=&quot;Times New Roman&quot;&gt;derphttp.connect&lt;/font&gt;" style="ellipse;whiteSpace=wrap;html=1;" vertex="1" parent="1">
          <mxGeometry x="600" y="900" width="160" height="50" as="geometry" />
        </mxCell>
        <mxCell id="HHnwj9ZDeLS21Np8BCJO-54" value="derphttp.Client.Recv" style="text;html=1;align=center;verticalAlign=middle;whiteSpace=wrap;rounded=0;" vertex="1" parent="1">
          <mxGeometry x="410" y="890" width="130" height="30" as="geometry" />
        </mxCell>
        <mxCell id="HHnwj9ZDeLS21Np8BCJO-55" value="&lt;font style=&quot;font-size: 18px;&quot; face=&quot;Times New Roman&quot;&gt;derp.Recv&lt;/font&gt;" style="ellipse;whiteSpace=wrap;html=1;" vertex="1" parent="1">
          <mxGeometry x="600" y="990" width="160" height="50" as="geometry" />
        </mxCell>
        <mxCell id="HHnwj9ZDeLS21Np8BCJO-58" value="&lt;font style=&quot;font-size: 18px;&quot; face=&quot;Times New Roman&quot;&gt;ReadFrameHeader&lt;/font&gt;" style="ellipse;whiteSpace=wrap;html=1;" vertex="1" parent="1">
          <mxGeometry x="827" y="990" width="160" height="50" as="geometry" />
        </mxCell>
        <mxCell id="HHnwj9ZDeLS21Np8BCJO-72" value="" style="group" vertex="1" connectable="0" parent="1">
          <mxGeometry x="1000" y="790" width="450" height="450" as="geometry" />
        </mxCell>
        <mxCell id="HHnwj9ZDeLS21Np8BCJO-60" value="" style="shape=curlyBracket;whiteSpace=wrap;html=1;rounded=1;labelPosition=left;verticalLabelPosition=middle;align=right;verticalAlign=middle;" vertex="1" parent="HHnwj9ZDeLS21Np8BCJO-72">
          <mxGeometry y="25" width="20" height="405" as="geometry" />
        </mxCell>
        <mxCell id="HHnwj9ZDeLS21Np8BCJO-61" value="&lt;font style=&quot;font-size: 18px;&quot; face=&quot;Times New Roman&quot;&gt;Type Is ServerInfo&lt;/font&gt;" style="ellipse;whiteSpace=wrap;html=1;" vertex="1" parent="HHnwj9ZDeLS21Np8BCJO-72">
          <mxGeometry x="40" width="160" height="50" as="geometry" />
        </mxCell>
        <mxCell id="HHnwj9ZDeLS21Np8BCJO-62" value="&lt;font style=&quot;font-size: 18px;&quot; face=&quot;Times New Roman&quot;&gt;Type Is KeepAlive&lt;/font&gt;" style="ellipse;whiteSpace=wrap;html=1;" vertex="1" parent="HHnwj9ZDeLS21Np8BCJO-72">
          <mxGeometry x="40" y="80" width="160" height="50" as="geometry" />
        </mxCell>
        <mxCell id="HHnwj9ZDeLS21Np8BCJO-65" value="&lt;font style=&quot;font-size: 18px;&quot; face=&quot;Times New Roman&quot;&gt;Type Is PeerGone&lt;/font&gt;" style="ellipse;whiteSpace=wrap;html=1;" vertex="1" parent="HHnwj9ZDeLS21Np8BCJO-72">
          <mxGeometry x="40" y="160" width="160" height="50" as="geometry" />
        </mxCell>
        <mxCell id="HHnwj9ZDeLS21Np8BCJO-66" value="&lt;font style=&quot;font-size: 18px;&quot; face=&quot;Times New Roman&quot;&gt;Used For a Client is Offline&lt;/font&gt;" style="text;html=1;align=center;verticalAlign=middle;whiteSpace=wrap;rounded=0;" vertex="1" parent="HHnwj9ZDeLS21Np8BCJO-72">
          <mxGeometry x="200" y="170" width="220" height="30" as="geometry" />
        </mxCell>
        <mxCell id="HHnwj9ZDeLS21Np8BCJO-67" value="&lt;font style=&quot;font-size: 18px;&quot; face=&quot;Times New Roman&quot;&gt;Type Is PeerPresent&lt;/font&gt;" style="ellipse;whiteSpace=wrap;html=1;" vertex="1" parent="HHnwj9ZDeLS21Np8BCJO-72">
          <mxGeometry x="40" y="240" width="160" height="50" as="geometry" />
        </mxCell>
        <mxCell id="HHnwj9ZDeLS21Np8BCJO-68" value="&lt;font style=&quot;font-size: 18px;&quot; face=&quot;Times New Roman&quot;&gt;Type Is RecvPacket&lt;/font&gt;" style="ellipse;whiteSpace=wrap;html=1;" vertex="1" parent="HHnwj9ZDeLS21Np8BCJO-72">
          <mxGeometry x="40" y="320" width="160" height="50" as="geometry" />
        </mxCell>
        <mxCell id="HHnwj9ZDeLS21Np8BCJO-69" value="&lt;font style=&quot;font-size: 18px;&quot; face=&quot;Times New Roman&quot;&gt;Receive Source Public and Data&lt;/font&gt;" style="text;html=1;align=center;verticalAlign=middle;whiteSpace=wrap;rounded=0;" vertex="1" parent="HHnwj9ZDeLS21Np8BCJO-72">
          <mxGeometry x="200" y="330" width="250" height="30" as="geometry" />
        </mxCell>
        <mxCell id="HHnwj9ZDeLS21Np8BCJO-70" value="&lt;font style=&quot;font-size: 18px;&quot; face=&quot;Times New Roman&quot;&gt;Type Is Restart&lt;/font&gt;" style="ellipse;whiteSpace=wrap;html=1;" vertex="1" parent="HHnwj9ZDeLS21Np8BCJO-72">
          <mxGeometry x="40" y="400" width="160" height="50" as="geometry" />
        </mxCell>
        <mxCell id="HHnwj9ZDeLS21Np8BCJO-71" value="&lt;font style=&quot;font-size: 18px;&quot; face=&quot;Times New Roman&quot;&gt;Used For a Reconnect&lt;/font&gt;" style="text;html=1;align=center;verticalAlign=middle;whiteSpace=wrap;rounded=0;" vertex="1" parent="HHnwj9ZDeLS21Np8BCJO-72">
          <mxGeometry x="200" y="410" width="220" height="30" as="geometry" />
        </mxCell>
      </root>
    </mxGraphModel>
  </diagram>
</mxfile>
